<svg width="400" height="300" viewBox="0 0 400 300" fill="none" xmlns="http://www.w3.org/2000/svg">
  <rect width="400" height="300" rx="12" fill="url(#gradient1)"/>
  
  <!-- Medical Cross -->
  <rect x="150" y="100" width="20" height="100" fill="#3B82F6" rx="4"/>
  <rect x="100" y="150" width="120" height="20" fill="#3B82F6" rx="4"/>
  
  <!-- Calendar Icon -->
  <rect x="250" y="80" width="80" height="60" fill="#10B981" rx="6"/>
  <rect x="250" y="80" width="80" height="15" fill="#059669" rx="6"/>
  <circle cx="270" cy="87" r="2" fill="white"/>
  <circle cx="280" cy="87" r="2" fill="white"/>
  <circle cx="290" cy="87" r="2" fill="white"/>
  <circle cx="300" cy="87" r="2" fill="white"/>
  <circle cx="310" cy="87" r="2" fill="white"/>
  <circle cx="320" cy="87" r="2" fill="white"/>
  
  <!-- Date numbers -->
  <text x="260" y="105" font-family="Arial" font-size="12" fill="white">15</text>
  <text x="280" y="105" font-family="Arial" font-size="12" fill="white">16</text>
  <text x="300" y="105" font-family="Arial" font-size="12" fill="white">17</text>
  <text x="320" y="105" font-family="Arial" font-size="12" fill="white">18</text>
  
  <!-- Phone/Mobile icon -->
  <rect x="80" y="200" width="40" height="70" fill="#8B5CF6" rx="6"/>
  <rect x="85" y="205" width="30" height="50" fill="#7C3AED" rx="2"/>
  <circle cx="100" cy="265" r="3" fill="#7C3AED"/>
  
  <!-- Web icon -->
  <rect x="280" y="200" width="60" height="40" fill="#F59E0B" rx="6"/>
  <rect x="285" y="205" width="50" height="30" fill="#D97706" rx="2"/>
  <circle cx="295" cy="215" r="2" fill="white"/>
  <circle cx="305" cy="215" r="2" fill="white"/>
  <circle cx="315" cy="215" r="2" fill="white"/>
  
  <defs>
    <linearGradient id="gradient1" x1="0%" y1="0%" x2="100%" y2="100%">
      <stop offset="0%" style="stop-color:#1E40AF;stop-opacity:1" />
      <stop offset="100%" style="stop-color:#3B82F6;stop-opacity:1" />
    </linearGradient>
  </defs>
</svg> 