<svg width="400" height="300" viewBox="0 0 400 300" fill="none" xmlns="http://www.w3.org/2000/svg">
  <rect width="400" height="300" rx="12" fill="url(#gradient5)"/>
  
  <!-- Browser Window -->
  <rect x="80" y="80" width="240" height="160" fill="#1F2937" rx="8"/>
  <rect x="80" y="80" width="240" height="30" fill="#374151" rx="8"/>
  
  <!-- Browser Controls -->
  <circle cx="100" cy="95" r="5" fill="#EF4444"/>
  <circle cx="115" cy="95" r="5" fill="#F59E0B"/>
  <circle cx="130" cy="95" r="5" fill="#10B981"/>
  
  <!-- Code Brackets -->
  <text x="150" y="105" font-family="monospace" font-size="12" fill="#6B7280">&lt;</text>
  <text x="160" y="105" font-family="monospace" font-size="12" fill="#3B82F6">div</text>
  <text x="180" y="105" font-family="monospace" font-size="12" fill="#6B7280">&gt;</text>
  
  <text x="150" y="125" font-family="monospace" font-size="12" fill="#6B7280">&lt;</text>
  <text x="160" y="125" font-family="monospace" font-size="12" fill="#8B5CF6">h1</text>
  <text x="175" y="125" font-family="monospace" font-size="12" fill="#6B7280">&gt;</text>
  <text x="185" y="125" font-family="monospace" font-size="12" fill="#F59E0B">Portfolio</text>
  <text x="240" y="125" font-family="monospace" font-size="12" fill="#6B7280">&lt;/</text>
  <text x="250" y="125" font-family="monospace" font-size="12" fill="#8B5CF6">h1</text>
  <text x="260" y="125" font-family="monospace" font-size="12" fill="#6B7280">&gt;</text>
  
  <text x="150" y="145" font-family="monospace" font-size="12" fill="#6B7280">&lt;/</text>
  <text x="160" y="145" font-family="monospace" font-size="12" fill="#3B82F6">div</text>
  <text x="180" y="145" font-family="monospace" font-size="12" fill="#6B7280">&gt;</text>
  
  <!-- Responsive Design Icons -->
  <rect x="320" y="100" width="30" height="50" fill="#8B5CF6" rx="4"/>
  <rect x="325" y="105" width="20" height="40" fill="#7C3AED" rx="2"/>
  
  <rect x="320" y="170" width="50" height="30" fill="#10B981" rx="4"/>
  <rect x="325" y="175" width="40" height="20" fill="#059669" rx="2"/>
  
  <!-- UI Components -->
  <rect x="100" y="180" width="60" height="8" fill="#F59E0B" rx="4"/>
  <rect x="100" y="195" width="40" height="8" fill="#6B7280" rx="4"/>
  <rect x="100" y="210" width="50" height="8" fill="#6B7280" rx="4"/>
  
  <!-- Animation Dots -->
  <circle cx="200" cy="190" r="3" fill="#3B82F6"/>
  <circle cx="210" cy="190" r="3" fill="#8B5CF6"/>
  <circle cx="220" cy="190" r="3" fill="#F59E0B"/>
  
  <!-- Modern Design Elements -->
  <path d="M 250 180 Q 270 170 290 180" stroke="#10B981" stroke-width="2" fill="none"/>
  <path d="M 250 185 Q 270 175 290 185" stroke="#10B981" stroke-width="2" fill="none"/>
  
  <defs>
    <linearGradient id="gradient5" x1="0%" y1="0%" x2="100%" y2="100%">
      <stop offset="0%" style="stop-color:#1F2937;stop-opacity:1" />
      <stop offset="100%" style="stop-color:#374151;stop-opacity:1" />
    </linearGradient>
  </defs>
</svg> 