<svg width="400" height="300" viewBox="0 0 400 300" fill="none" xmlns="http://www.w3.org/2000/svg">
  <rect width="400" height="300" rx="12" fill="url(#gradient3)"/>
  
  <!-- Chart/Graph -->
  <rect x="80" y="180" width="200" height="80" fill="#10B981" opacity="0.2" rx="4"/>
  <path d="M 80 220 L 120 200 L 160 210 L 200 180 L 240 190 L 280 160" stroke="#10B981" stroke-width="3" fill="none"/>
  <circle cx="120" cy="200" r="4" fill="#10B981"/>
  <circle cx="160" cy="210" r="4" fill="#10B981"/>
  <circle cx="200" cy="180" r="4" fill="#10B981"/>
  <circle cx="240" cy="190" r="4" fill="#10B981"/>
  <circle cx="280" cy="160" r="4" fill="#10B981"/>
  
  <!-- Dollar Sign -->
  <text x="320" y="140" font-family="Arial" font-size="48" font-weight="bold" fill="#F59E0B">$</text>
  
  <!-- AI Brain/Neural Network -->
  <circle cx="100" cy="80" r="6" fill="#3B82F6"/>
  <circle cx="120" cy="60" r="4" fill="#3B82F6"/>
  <circle cx="120" cy="100" r="4" fill="#3B82F6"/>
  <circle cx="140" cy="70" r="4" fill="#3B82F6"/>
  <circle cx="140" cy="90" r="4" fill="#3B82F6"/>
  <circle cx="160" cy="80" r="3" fill="#3B82F6"/>
  
  <!-- Connection lines -->
  <line x1="100" y1="80" x2="120" y2="60" stroke="#3B82F6" stroke-width="2"/>
  <line x1="100" y1="80" x2="120" y2="100" stroke="#3B82F6" stroke-width="2"/>
  <line x1="120" y1="60" x2="140" y2="70" stroke="#3B82F6" stroke-width="2"/>
  <line x1="120" y1="100" x2="140" y2="90" stroke="#3B82F6" stroke-width="2"/>
  <line x1="140" y1="70" x2="160" y2="80" stroke="#3B82F6" stroke-width="2"/>
  <line x1="140" y1="90" x2="160" y2="80" stroke="#3B82F6" stroke-width="2"/>
  
  <!-- Bar Chart -->
  <rect x="300" y="200" width="20" height="40" fill="#8B5CF6"/>
  <rect x="330" y="180" width="20" height="60" fill="#8B5CF6"/>
  <rect x="360" y="190" width="20" height="50" fill="#8B5CF6"/>
  
  <!-- Trend Arrow -->
  <path d="M 320 120 L 340 100 L 360 120" stroke="#F59E0B" stroke-width="3" fill="none"/>
  <path d="M 340 100 L 340 110" stroke="#F59E0B" stroke-width="3" fill="none"/>
  <path d="M 340 100 L 330 105" stroke="#F59E0B" stroke-width="3" fill="none"/>
  
  <defs>
    <linearGradient id="gradient3" x1="0%" y1="0%" x2="100%" y2="100%">
      <stop offset="0%" style="stop-color:#059669;stop-opacity:1" />
      <stop offset="100%" style="stop-color:#10B981;stop-opacity:1" />
    </linearGradient>
  </defs>
</svg> 