<svg width="400" height="300" viewBox="0 0 400 300" fill="none" xmlns="http://www.w3.org/2000/svg">
  <rect width="400" height="300" rx="12" fill="url(#gradient4)"/>
  
  <!-- Data Cube -->
  <rect x="120" y="120" width="60" height="60" fill="#8B5CF6" opacity="0.8"/>
  <rect x="140" y="100" width="60" height="60" fill="#7C3AED" opacity="0.6"/>
  <rect x="160" y="80" width="60" height="60" fill="#6D28D9" opacity="0.4"/>
  
  <!-- Data Points -->
  <circle cx="150" cy="150" r="3" fill="#F59E0B"/>
  <circle cx="170" cy="130" r="3" fill="#F59E0B"/>
  <circle cx="190" cy="110" r="3" fill="#F59E0B"/>
  <circle cx="160" cy="170" r="3" fill="#F59E0B"/>
  <circle cx="180" cy="150" r="3" fill="#F59E0B"/>
  <circle cx="200" cy="130" r="3" fill="#F59E0B"/>
  
  <!-- Neural Network -->
  <circle cx="280" cy="100" r="5" fill="#10B981"/>
  <circle cx="300" cy="80" r="4" fill="#10B981"/>
  <circle cx="300" cy="120" r="4" fill="#10B981"/>
  <circle cx="320" cy="90" r="4" fill="#10B981"/>
  <circle cx="320" cy="110" r="4" fill="#10B981"/>
  <circle cx="340" cy="100" r="3" fill="#10B981"/>
  
  <!-- Connection lines -->
  <line x1="280" y1="100" x2="300" y2="80" stroke="#10B981" stroke-width="2"/>
  <line x1="280" y1="100" x2="300" y2="120" stroke="#10B981" stroke-width="2"/>
  <line x1="300" y1="80" x2="320" y2="90" stroke="#10B981" stroke-width="2"/>
  <line x1="300" y1="120" x2="320" y2="110" stroke="#10B981" stroke-width="2"/>
  <line x1="320" y1="90" x2="340" y2="100" stroke="#10B981" stroke-width="2"/>
  <line x1="320" y1="110" x2="340" y2="100" stroke="#10B981" stroke-width="2"/>
  
  <!-- Synthesis Arrow -->
  <path d="M 80 200 L 120 200 L 100 180" stroke="#3B82F6" stroke-width="3" fill="none"/>
  <path d="M 80 200 L 120 200 L 100 220" stroke="#3B82F6" stroke-width="3" fill="none"/>
  
  <!-- Data Flow Lines -->
  <path d="M 200 200 Q 250 180 300 200" stroke="#F59E0B" stroke-width="2" fill="none"/>
  <path d="M 200 210 Q 250 190 300 210" stroke="#F59E0B" stroke-width="2" fill="none"/>
  <path d="M 200 220 Q 250 200 300 220" stroke="#F59E0B" stroke-width="2" fill="none"/>
  
  <!-- Generated Data Blocks -->
  <rect x="320" y="180" width="40" height="20" fill="#10B981" rx="2"/>
  <rect x="320" y="210" width="40" height="20" fill="#10B981" rx="2"/>
  <rect x="320" y="240" width="40" height="20" fill="#10B981" rx="2"/>
  
  <!-- AI Processing Icon -->
  <circle cx="100" cy="80" r="15" fill="#3B82F6"/>
  <text x="95" y="87" font-family="Arial" font-size="16" font-weight="bold" fill="white">AI</text>
  
  <defs>
    <linearGradient id="gradient4" x1="0%" y1="0%" x2="100%" y2="100%">
      <stop offset="0%" style="stop-color:#6D28D9;stop-opacity:1" />
      <stop offset="100%" style="stop-color:#8B5CF6;stop-opacity:1" />
    </linearGradient>
  </defs>
</svg> 