<svg width="400" height="300" viewBox="0 0 400 300" fill="none" xmlns="http://www.w3.org/2000/svg">
  <rect width="400" height="300" rx="12" fill="url(#gradient2)"/>
  
  <!-- Microphone -->
  <rect x="180" y="120" width="40" height="80" fill="#8B5CF6" rx="20"/>
  <rect x="190" y="130" width="20" height="60" fill="#7C3AED" rx="10"/>
  <circle cx="200" cy="200" r="15" fill="#8B5CF6"/>
  <rect x="195" y="200" width="10" height="20" fill="#7C3AED" rx="5"/>
  
  <!-- Sound waves -->
  <path d="M 250 150 Q 270 130 290 150 Q 310 170 330 150" stroke="#F59E0B" stroke-width="3" fill="none"/>
  <path d="M 250 160 Q 275 135 300 160 Q 325 185 350 160" stroke="#F59E0B" stroke-width="3" fill="none"/>
  <path d="M 250 170 Q 280 140 310 170 Q 340 200 370 170" stroke="#F59E0B" stroke-width="3" fill="none"/>
  
  <!-- AI Brain/Neural Network -->
  <circle cx="120" cy="120" r="8" fill="#10B981"/>
  <circle cx="140" cy="100" r="6" fill="#10B981"/>
  <circle cx="140" cy="140" r="6" fill="#10B981"/>
  <circle cx="160" cy="110" r="6" fill="#10B981"/>
  <circle cx="160" cy="130" r="6" fill="#10B981"/>
  <circle cx="180" cy="120" r="4" fill="#10B981"/>
  
  <!-- Connection lines -->
  <line x1="120" y1="120" x2="140" y2="100" stroke="#10B981" stroke-width="2"/>
  <line x1="120" y1="120" x2="140" y2="140" stroke="#10B981" stroke-width="2"/>
  <line x1="140" y1="100" x2="160" y2="110" stroke="#10B981" stroke-width="2"/>
  <line x1="140" y1="140" x2="160" y2="130" stroke="#10B981" stroke-width="2"/>
  <line x1="160" y1="110" x2="180" y2="120" stroke="#10B981" stroke-width="2"/>
  <line x1="160" y1="130" x2="180" y2="120" stroke="#10B981" stroke-width="2"/>
  
  <!-- Voice recognition waves -->
  <path d="M 80 200 Q 100 180 120 200 Q 140 220 160 200" stroke="#3B82F6" stroke-width="2" fill="none"/>
  <path d="M 80 210 Q 105 185 130 210 Q 155 235 180 210" stroke="#3B82F6" stroke-width="2" fill="none"/>
  
  <defs>
    <linearGradient id="gradient2" x1="0%" y1="0%" x2="100%" y2="100%">
      <stop offset="0%" style="stop-color:#7C3AED;stop-opacity:1" />
      <stop offset="100%" style="stop-color:#8B5CF6;stop-opacity:1" />
    </linearGradient>
  </defs>
</svg> 